<?xml version="1.0" encoding="UTF-8" standalone="no"?>
<!-- Created with Inkscape (http://www.inkscape.org/) -->

<svg
   xmlns:dc="http://purl.org/dc/elements/1.1/"
   xmlns:cc="http://creativecommons.org/ns#"
   xmlns:rdf="http://www.w3.org/1999/02/22-rdf-syntax-ns#"
   xmlns:svg="http://www.w3.org/2000/svg"
   xmlns="http://www.w3.org/2000/svg"
   xmlns:sodipodi="http://sodipodi.sourceforge.net/DTD/sodipodi-0.dtd"
   xmlns:inkscape="http://www.inkscape.org/namespaces/inkscape"
   width="210mm"
   height="297mm"
   viewBox="0 0 210 297"
   version="1.1"
   id="svg8"
   inkscape:version="0.92.1 r15371"
   sodipodi:docname="resources.svg">
  <defs
     id="defs2" />
  <sodipodi:namedview
     id="base"
     pagecolor="#ffffff"
     bordercolor="#666666"
     borderopacity="1.0"
     inkscape:pageopacity="0.0"
     inkscape:pageshadow="2"
     inkscape:zoom="7.9195959"
     inkscape:cx="56.223138"
     inkscape:cy="39.193783"
     inkscape:document-units="mm"
     inkscape:current-layer="layer1"
     showgrid="false"
     inkscape:window-width="1920"
     inkscape:window-height="1001"
     inkscape:window-x="-9"
     inkscape:window-y="-9"
     inkscape:window-maximized="1" />
  <metadata
     id="metadata5">
    <rdf:RDF>
      <cc:Work
         rdf:about="">
        <dc:format>image/svg+xml</dc:format>
        <dc:type
           rdf:resource="http://purl.org/dc/dcmitype/StillImage" />
        <dc:title></dc:title>
      </cc:Work>
    </rdf:RDF>
  </metadata>
  <g
     inkscape:label="Capa 1"
     inkscape:groupmode="layer"
     id="layer1">
    <g
       id="g4546"
       transform="matrix(0.98832637,0,0,1.0064754,-1.81603,-1.0465884)">
      <path
         sodipodi:nodetypes="cscsssscc"
         inkscape:connector-curvature="0"
         id="path3680"
         d="m 17.966556,292.07462 c -8.015601,3.89804 -2.655732,3.99449 -7.461982,3.99449 -3.3565539,0 -5.5613331,-0.58415 -7.7409804,-0.0666 0.35367,-1.32025 -0.8662052,-3.43393 -0.8662052,-5.51633 0,-1.90694 0.7243626,-3.55792 2.0012638,-4.40376 0.7116402,-0.4714 2.018336,-0.0576 2.449275,-0.82505 1.5952375,-2.84103 2.9426124,-4.96588 5.6814378,-4.96588 2.611815,0 2.688693,5.25043 4.47936,4.63221 0.670879,1.6242 -0.0069,3.59898 1.457831,7.1509 z"
         style="fill:#999999;stroke:#000000;stroke-width:0.11982069;stroke-opacity:1" />
      <path
         inkscape:connector-curvature="0"
         id="path4512"
         d="m 2.8348215,292.91314 c -0.031498,-0.0236 -0.069898,-0.0401 -0.094494,-0.0709 -0.00984,-0.0122 0,-0.0315 0,-0.0473 0,-0.008 0,-0.0159 0,-0.0235 0,-0.0551 0,-0.11023 0,-0.16537 0,-0.0315 -0.00764,-0.0639 0,-0.0945 0.00854,-0.0342 0.025247,-0.067 0.047247,-0.0945 0.031498,-0.0394 0.1889882,-0.18376 0.2362351,-0.23625 0.041143,-0.0457 0.081944,-0.092 0.1181176,-0.14174 0.027006,-0.0371 0.039984,-0.0841 0.070871,-0.11811 0.048836,-0.0537 0.1116455,-0.0929 0.1653646,-0.14176 0.032961,-0.0299 0.060673,-0.0655 0.094494,-0.0945 0.021556,-0.0185 0.047247,-0.0315 0.070871,-0.0473 0.031498,-0.0236 0.065067,-0.0447 0.094494,-0.0709 0.041617,-0.037 0.076501,-0.0811 0.1181177,-0.11814 0.040198,-0.0357 0.2055563,-0.14883 0.236235,-0.16537 0.2226141,-0.11985 0.4813634,-0.15158 0.7087053,-0.25984 0.082911,-0.0395 0.1548878,-0.0991 0.2362351,-0.14174 0.2610053,-0.13671 0.2587119,-0.0995 0.5197173,-0.23625 0.081347,-0.0426 0.1567616,-0.0957 0.2362351,-0.14173 0.2776172,-0.16074 0.5614011,-0.30967 0.8504465,-0.44884 0.069877,-0.0337 0.1399947,-0.0673 0.2126114,-0.0945 0.053677,-0.0201 0.1109793,-0.0291 0.1653646,-0.0472 0.1839664,-0.0613 0.3081875,-0.12266 0.4960938,-0.16536 0.093415,-0.0212 0.1893765,-0.0294 0.2834822,-0.0473 0.071317,-0.0135 0.14218,-0.0296 0.2126115,-0.0472 0.055616,-0.014 0.1090195,-0.0367 0.1653646,-0.0472 0.2101617,-0.0394 0.200215,-0.007 0.4015999,-0.0473 0.056214,-0.0114 0.1095052,-0.0344 0.1653646,-0.0473 0.060895,-0.0503 0.1452076,-0.0124 0.2126115,-0.0236 0.024564,-0.004 0.046713,-0.0175 0.07087,-0.0236 0.022394,-0.006 0.1432113,0 0.1653646,0 0.1732391,0 0.3464782,0 0.5197173,0"
         style="fill:none;stroke:#000000;stroke-width:0.26458332px;stroke-linecap:butt;stroke-linejoin:miter;stroke-opacity:1" />
      <path
         inkscape:connector-curvature="0"
         id="path4514"
         d="m 12.898437,287.47971 c 0,-0.0551 0,-0.11023 0,-0.16536 0,-0.008 0.0044,-0.0169 0,-0.0236 -0.01235,-0.0185 -0.02872,-0.0349 -0.04725,-0.0473 -0.0066,-0.004 -0.01581,0 -0.02362,0 -0.05525,-0.007 -0.110243,-0.0159 -0.165365,-0.0236 -0.191365,-0.0273 -0.249317,-0.0393 -0.47247,-0.0473 -0.118042,-0.004 -0.236235,0 -0.354353,0 -0.724454,0 -1.448909,0 -2.1733628,0 -0.1290876,0 -0.3195688,0.009 -0.4488466,-0.0236 -0.05818,-0.0145 -0.1092126,-0.0498 -0.1653646,-0.0708 -0.00737,-0.003 -0.016581,0.003 -0.023625,0 -0.063943,-0.032 -0.1088724,-0.076 -0.141741,-0.14174 -0.01452,-0.029 -0.010835,-0.0647 -0.023625,-0.0945 -0.00895,-0.0209 -0.064361,-0.0856 -0.07087,-0.11811 -0.00463,-0.0233 0,-0.0472 0,-0.0709 0,-0.0472 0,-0.0945 0,-0.14174 0,-0.0236 0.00649,-0.0482 0,-0.0709 -0.00968,-0.0339 -0.037572,-0.0607 -0.047247,-0.0945 -0.00649,-0.0228 0,-0.0472 0,-0.0709 0,-0.0473 0,-0.0945 0,-0.14174 0,-0.022 -0.0053,-0.10488 0,-0.11813 0.010544,-0.0265 0.030212,-0.0482 0.047247,-0.0709 0.00668,-0.009 0.020103,-0.013 0.023625,-0.0236 0.00498,-0.0151 -0.00498,-0.0323 0,-0.0473 0.011136,-0.0334 0.034168,-0.0618 0.047247,-0.0945 0.00292,-0.007 0,-0.0159 0,-0.0236 0,-0.0159 0,-0.0315 0,-0.0473 0,-0.0551 0,-0.11025 0,-0.16536 0,-0.006 7.673e-4,-0.0701 0,-0.0709 -0.00557,-0.006 -0.016581,0.003 -0.023625,0 -0.00996,-0.005 -0.015748,-0.0159 -0.023622,-0.0235"
         style="fill:none;stroke:#000000;stroke-width:0.26458332px;stroke-linecap:butt;stroke-linejoin:miter;stroke-opacity:1" />
      <path
         inkscape:connector-curvature="0"
         id="path4516"
         d="m 13.087426,292.58241 c -0.01166,0.0572 0.03607,0.12674 0.02362,0.18897 -0.0171,0.0855 -0.02895,0.0762 -0.09449,0.14176 -0.01575,0.0159 -0.0315,0.0315 -0.04725,0.0472 -0.103568,0.10358 -0.205721,0.20537 -0.330729,0.2835 -0.03894,0.0243 -0.07573,0.0532 -0.118118,0.0709 -0.05292,0.022 -0.111219,0.0284 -0.165364,0.0473 -1.56298,0.54364 0.724609,-0.21908 -0.732329,0.23622 -0.135498,0.0424 -0.266925,0.0969 -0.4016,0.14176 -0.125227,0.0417 -0.252749,0.0764 -0.377976,0.11811 -0.134675,0.0449 -0.266496,0.0982 -0.4016,0.14174 -0.360394,0.11626 -0.313641,0.0775 -0.6850816,0.18899 -0.119256,0.0358 -0.2339912,0.0863 -0.3543528,0.11811 -0.1478044,0.0391 -0.3002555,0.0585 -0.4488466,0.0945 -0.6209683,0.15052 -0.039815,0.0458 -0.6614583,0.16537 -0.094074,0.018 -0.1892863,0.0298 -0.2834822,0.0472 -0.1184429,0.022 -0.2353699,0.0521 -0.3543525,0.0709 -0.031113,0.005 -0.063746,-0.007 -0.094494,0 -0.1916076,0.0426 -0.043792,0.0498 -0.2126118,0.0708 -0.031255,0.004 -0.063239,-0.004 -0.094494,0 -0.032217,0.004 -0.062657,0.0172 -0.094494,0.0236 -0.00772,0.003 -0.015748,0 -0.023625,0 -0.023625,0 -0.047247,0 -0.07087,0 -0.039373,0 -0.078745,0 -0.1181177,0 -0.012062,0 -0.1614545,0.003 -0.1653645,0 -0.018531,-0.0124 -0.028148,-0.0358 -0.047247,-0.0472 -0.021352,-0.013 -0.046713,-0.0175 -0.070871,-0.0236 -0.00764,-0.003 -0.018055,0.006 -0.023625,0 -0.012451,-0.0124 -0.011173,-0.0348 -0.023625,-0.0473 -0.00557,-0.006 -0.016581,0.003 -0.023625,0 -0.00996,-0.005 -0.015748,-0.0159 -0.023625,-0.0236 -0.00787,-0.008 -0.015748,-0.0159 -0.023625,-0.0236"
         style="fill:none;stroke:#000000;stroke-width:0.26458332px;stroke-linecap:butt;stroke-linejoin:miter;stroke-opacity:1" />
      <path
         inkscape:connector-curvature="0"
         id="path4518"
         d="m 10.181734,291.89733 c -0.140052,-0.056 -0.07571,-0.0473 -0.1889886,-0.0473 -0.031498,0 -0.064612,0.0101 -0.094494,0 -0.02113,-0.007 -0.027326,-0.0373 -0.047247,-0.0473 -0.081075,-0.0405 -0.1755971,-0.0175 -0.2598587,-0.0236 -0.05554,-0.004 -0.1102431,-0.0156 -0.1653646,-0.0236 -0.141741,-0.0159 -0.2828295,-0.0393 -0.4252232,-0.0473 -0.5291484,-0.0294 -0.3321923,0.0235 -0.8740698,0.0235 -0.2311739,0 -0.3242908,-0.0363 -0.5433409,-0.0473 -0.078647,-0.004 -0.1574901,0 -0.2362351,0 -0.08662,0 -0.1753018,-0.0188 -0.2598587,0 -0.061974,0.0138 -0.1077214,0.0679 -0.1653646,0.0945 -0.1621573,0.0748 -0.1063831,0.0132 -0.2362351,0.0945 -0.033388,0.0209 -0.057628,0.0571 -0.094494,0.0709 -0.029492,0.0111 -0.064612,-0.0101 -0.094494,0 -0.043791,0.0145 -0.049862,0.063 -0.07087,0.0945 -0.00618,0.009 -0.013663,0.0185 -0.023625,0.0235 -0.00704,0.003 -0.020103,-0.007 -0.023625,0 -0.00704,0.014 0,0.0315 0,0.0472 -0.015748,0.0159 -0.034892,0.0287 -0.047247,0.0473 -0.00437,0.007 0,0.0156 0,0.0235 0,0.0291 -0.00352,0.0437 0.023625,0.0709 0.00557,0.006 0.018055,-0.006 0.023625,0 0.011136,0.0111 -0.00498,0.0323 0,0.0472 0.010515,0.0316 0.055467,0.0989 0.070871,0.11814 0.013914,0.0175 0.031498,0.0315 0.047247,0.0472 0.015748,0.0159 0.029429,0.0339 0.047247,0.0472 0.014086,0.0106 0.033498,0.0127 0.047247,0.0236 0.1435391,0.11483 0.024193,0.0243 0.094494,0.11811 0.028541,0.038 0.1117134,0.0994 0.141741,0.11811 0.1030361,0.0644 0.1064104,0.0473 0.2362353,0.0709 0.071421,0.013 0.1902468,0.0409 0.2598587,0.0473 0.039211,0.003 0.078745,0 0.1181174,0 0.1181177,0 0.2362351,0 0.3543527,0 0.1968625,0 0.3937252,0 0.5905879,0 0.07087,0 0.1418632,-0.004 0.2126115,0 0.4225954,0.0249 -0.031634,0.0114 0.3543527,0.0709 0.046698,0.007 0.095619,0.0103 0.141741,0 0.135849,-0.0302 0.064452,-0.2041 0.2598587,-0.11811 0.1582404,0.0696 0.2952213,0.18058 0.4488468,0.25985 0.068911,0.0356 0.3932736,0.16698 0.4960936,0.18899 0.0863,0.0185 0.176263,-0.0161 0.259858,-0.0236 0.03921,-0.003 0.07899,0.005 0.118118,0 0.03227,-0.004 0.06435,-0.0116 0.09449,-0.0235 0.07298,-0.0292 -0.01848,-0.0236 0.04725,-0.0236"
         style="fill:none;stroke:#000000;stroke-width:0.26458332px;stroke-linecap:butt;stroke-linejoin:miter;stroke-opacity:1" />
      <path
         inkscape:connector-curvature="0"
         id="path4520"
         d="m 2.5040922,289.58222 c 0.062996,-0.0315 0.1248695,-0.0654 0.188988,-0.0945 0.02267,-0.0103 0.046713,-0.0175 0.070871,-0.0236 0.00764,-0.003 0.016872,0.004 0.023625,0 0.033762,-0.0201 0.061734,-0.049 0.094494,-0.0709 0.061811,-0.0412 0.1282973,-0.0753 0.1889882,-0.11811 0.07335,-0.0518 0.1373335,-0.11644 0.2126115,-0.16537 0.082727,-0.0538 0.1716079,-0.0976 0.2598586,-0.14176 0.089387,-0.0447 0.5852621,-0.2812 0.7559524,-0.35433 0.077954,-0.0334 0.159311,-0.0588 0.2362351,-0.0945 0.1437349,-0.0667 0.2824403,-0.14385 0.4252233,-0.21262 0.7480252,-0.36015 -0.31094,0.15671 0.4252232,-0.16536 0.1330653,-0.0582 0.1996123,-0.11854 0.3071056,-0.2126 0.016761,-0.0145 0.028715,-0.0349 0.047247,-0.0473 0.00655,-0.004 0.018055,0.006 0.023625,0 0.1553292,-0.15534 -0.044411,0.0119 0.07087,-0.14174 0.010565,-0.014 0.033498,-0.0127 0.047247,-0.0235 0.1682406,-0.1346 0.011173,-0.014 0.094494,-0.11811 0.02087,-0.0262 0.054646,-0.0417 0.07087,-0.0709 0.024186,-0.0435 0.022537,-0.0985 0.047247,-0.14173 0.00874,-0.0153 0.034796,-0.0111 0.047247,-0.0236 0.012451,-0.0124 0.015748,-0.0315 0.023625,-0.0473 0.015748,-0.0315 0.029775,-0.0639 0.047247,-0.0945 0.015748,-0.0236 0.031498,-0.0473 0.047247,-0.0709 0.015748,-0.0156 0.034892,-0.0287 0.047247,-0.0472 0.00437,-0.007 -0.00405,-0.0169 0,-0.0236 0.022043,-0.0761 0.1014701,-0.10496 0.141741,-0.16536 0.013814,-0.0206 0.012488,-0.0486 0.023625,-0.0709 0.012697,-0.0254 0.031498,-0.0472 0.047247,-0.0709 0.015748,-0.0236 0.030212,-0.0482 0.047247,-0.0709 0.00668,-0.009 0.018642,-0.0138 0.023625,-0.0236 0.057095,-0.11419 0.0056,-0.028 0.023625,-0.11811 0.00676,-0.0338 0.028348,-0.0866 0.047247,-0.11811 0.014608,-0.0243 0.03455,-0.0455 0.047247,-0.0709 0.00352,-0.007 -0.00557,-0.018 0,-0.0236 0.012451,-0.0124 0.034796,-0.0111 0.047247,-0.0236 0.011136,-0.0111 -0.00498,-0.0323 0,-0.0472 0.00557,-0.0167 0.018055,-0.0306 0.023625,-0.0473 0.00978,-0.0293 -0.019394,-0.0257 0.023625,-0.0473 0.00719,-0.004 0.060231,0 0.07087,0"
         style="fill:none;stroke:#000000;stroke-width:0.26458332px;stroke-linecap:butt;stroke-linejoin:miter;stroke-opacity:1" />
      <path
         inkscape:connector-curvature="0"
         id="path4522"
         d="m 5.2290712,294.66591 c -0.047247,-0.0315 -0.1015889,-0.0543 -0.1417411,-0.0945 -0.011136,-0.0111 0.00704,-0.0331 0,-0.0473 -0.00996,-0.0198 -0.033883,-0.0294 -0.047247,-0.0472 -0.010565,-0.014 -0.014564,-0.0322 -0.023624,-0.0473 -0.014607,-0.0243 -0.03455,-0.0455 -0.047247,-0.0709 -0.011136,-0.0222 -0.011269,-0.0492 -0.023624,-0.0709 -0.019534,-0.0342 -0.047986,-0.0625 -0.070871,-0.0945 -0.016503,-0.023 -0.031498,-0.0472 -0.047247,-0.0709 -0.031498,-0.0394 -0.064241,-0.0778 -0.094494,-0.11811 -0.017035,-0.0227 -0.02877,-0.0493 -0.047247,-0.0709 -0.028989,-0.0338 -0.062996,-0.063 -0.094494,-0.0945 -0.039373,-0.0394 -0.078745,-0.0788 -0.1181176,-0.11814 -0.031498,-0.0315 -0.0649,-0.0612 -0.094494,-0.0945 -0.033498,-0.0377 -0.063538,-0.0783 -0.094494,-0.11811 -0.024172,-0.0311 -0.04303,-0.0667 -0.070871,-0.0945 -0.1167161,-0.11671 -0.077655,-0.0293 -0.2126116,-0.14174 -0.013527,-0.0114 -0.012624,-0.0335 -0.023624,-0.0473 -0.02087,-0.0262 -0.047247,-0.0472 -0.07087,-0.0709 -0.023624,-0.0236 -0.047247,-0.0473 -0.070871,-0.0709 -0.015749,-0.0159 -0.033883,-0.0294 -0.047247,-0.0473 -0.010565,-0.014 -0.015749,-0.0315 -0.023624,-0.0472 -0.00787,-0.0159 -0.018055,-0.0306 -0.023623,-0.0473 -0.00249,-0.007 0.00352,-0.0167 0,-0.0236 -0.03476,-0.0695 -0.023624,0.0367 -0.023624,-0.0709 0,-0.008 0,-0.0159 0,-0.0236 0,-0.008 0.00437,-0.0172 0,-0.0236 -0.021192,-0.0318 -0.068772,-0.0493 -0.047247,-0.0709 0.012452,-0.0118 0.029982,-0.0195 0.047248,-0.023 0.019819,-0.004 0.1965983,0 0.2126116,0 0.062996,0 0.1259921,0 0.1889881,0 0.039373,0 0.079141,-0.006 0.1181176,0 0.017431,0.003 0.030543,0.018 0.047247,0.0236 0.030801,0.0103 0.062468,0.0183 0.094494,0.0236 0.015535,0.003 0.032624,-0.006 0.047247,0 0.1935826,0.0774 -0.096921,0.0365 0.2126116,0.0709 0.023479,0.003 0.047429,-0.003 0.070871,0 0.079684,0.0101 0.1562604,0.04 0.2362351,0.0472 0.047053,0.004 0.094859,-0.006 0.1417411,0 0.017472,0.003 0.030898,0.0172 0.047247,0.0236 0.02312,0.009 0.046308,0.0196 0.070871,0.0235 0.023302,0.004 0.047247,0 0.070871,0 0.070871,0 0.141741,0 0.2126116,0 0.015749,0 0.031498,0 0.047247,0 0.015749,0 0.031968,-0.004 0.047247,0 0.040846,0.0103 0.1262193,0.0824 0.1417411,0.0945 0.3304392,0.25699 -0.079416,-0.0386 0.2362351,0.14174 0.059118,0.0338 0.052241,0.097 0.094494,0.11811 0.029716,0.0148 0.047247,-0.0339 0.047247,0.0236"
         style="fill:none;stroke:#000000;stroke-width:0.26458332px;stroke-linecap:butt;stroke-linejoin:miter;stroke-opacity:1" />
      <path
         inkscape:connector-curvature="0"
         id="path4524"
         d="m 12.095238,290.787 c 0.08519,-0.0491 0.183288,-0.0779 0.259859,-0.14174 0.02566,-0.0214 0.0452,-0.0495 0.07087,-0.0709 0.02181,-0.0183 0.0508,-0.0272 0.07087,-0.0473 0.07031,-0.0703 0.04736,-0.12607 0.141741,-0.18899 0.04395,-0.0293 0.09779,-0.0416 0.141741,-0.0709 0.0278,-0.0185 0.04725,-0.0473 0.07087,-0.0709 0.0315,-0.0315 0.06067,-0.0655 0.09449,-0.0945 0.02156,-0.0185 0.05079,-0.0272 0.07087,-0.0473 0.0834,-0.0834 0.121894,-0.18426 0.212612,-0.25988 0.02181,-0.0182 0.04777,-0.0307 0.07087,-0.0472 0.03204,-0.0228 0.06173,-0.049 0.09449,-0.0709 0.0293,-0.0196 0.06519,-0.0277 0.09449,-0.0472 0.01465,-0.01 0.03937,-0.0394 0.02363,-0.0472 -0.01409,-0.007 -0.0315,0 -0.04725,0 -0.02362,-0.008 -0.04952,-0.0109 -0.07087,-0.0236 -0.0191,-0.0114 -0.02764,-0.0367 -0.04725,-0.0473 -0.08377,-0.0451 -0.173091,-0.0791 -0.259858,-0.11811 -0.07072,-0.0318 -0.138588,-0.0714 -0.212612,-0.0945 -0.05315,-0.0167 -0.110243,-0.0156 -0.165365,-0.0236 -0.110243,-0.0159 -0.220486,-0.0315 -0.330729,-0.0473 -0.05512,-0.008 -0.110765,-0.0127 -0.165365,-0.0236 -0.06367,-0.0127 -0.125041,-0.036 -0.188987,-0.0473 -0.04438,-0.008 -0.41566,-0.0437 -0.448847,-0.0472 -0.07091,-0.007 -0.141486,-0.0185 -0.212612,-0.0236 -0.03927,-0.003 -0.07899,0.004 -0.118117,0 -0.132104,-0.0145 -0.05338,-0.0249 -0.165365,-0.0473 -0.03089,-0.006 -0.063,0 -0.09449,0 -0.0079,0 -0.01615,0.003 -0.02362,0 -0.01671,-0.006 -0.03054,-0.018 -0.04725,-0.0235 -0.0092,-0.003 -0.06721,0.004 -0.07087,0 -0.0056,-0.006 0,-0.0159 0,-0.0236"
         style="fill:none;stroke:#000000;stroke-width:0.26458332px;stroke-linecap:butt;stroke-linejoin:miter;stroke-opacity:1" />
      <path
         inkscape:connector-curvature="0"
         id="path4526"
         d="m 11.386533,284.10155 c 0.07004,0.0119 0.09057,0.084 0.141741,0.11814 0.0066,0.004 0.01733,-0.005 0.02362,0 0.02673,0.0201 0.04099,0.0559 0.07087,0.0709 0.02113,0.0106 0.04928,-0.01 0.07087,0 0.05189,0.023 0.09383,0.064 0.141741,0.0945 0.03874,0.0246 0.07632,0.0519 0.118118,0.0709 0.04534,0.0206 0.0972,0.0249 0.141741,0.0473 0.03522,0.0175 0.06111,0.05 0.09449,0.0709 0.02986,0.0188 0.06212,0.0334 0.09449,0.0473 0.02289,0.01 0.04975,0.0103 0.07087,0.0236 0.04276,0.0267 0.07666,0.0658 0.118117,0.0945 0.187867,0.13007 0.147577,0.10433 0.330729,0.16537 0.02362,0.008 0.04671,0.0177 0.07087,0.0235 0.04725,0.0119 0,-0.0235 0.07087,0 0.01056,0.003 0.0127,0.0214 0.02362,0.0236 0.03089,0.006 0.06525,-0.0116 0.09449,0 0.01635,0.007 0.01935,0.0302 0.02363,0.0473 0.0038,0.0153 0.01575,0.0473 0,0.0473 -0.144705,0 -0.09886,-0.0916 -0.02363,-0.14176 0.01311,-0.009 0,0.0315 0,0.0473 0,0.0787 0,0.15751 0,0.23625 0,0.0787 0,0.15748 0,0.23622 0,0.0236 0,0.0473 0,0.0709 0,0.0236 0.0065,0.0482 0,0.0709 -0.03649,0.12772 -0.09941,0.11735 -0.188988,0.189 -0.01739,0.014 -0.0315,0.0315 -0.04725,0.0472 -0.0079,0.008 -0.01328,0.0196 -0.02362,0.0236 -0.03015,0.0122 -0.06465,0.0109 -0.09449,0.0236 -0.0261,0.0111 -0.04394,0.0383 -0.07087,0.0472 -0.02241,0.007 -0.04725,0 -0.07087,0 -0.08662,0 -0.173239,0 -0.259859,0 -0.307106,0 -0.614211,0 -0.921317,0 -0.125992,0 -0.251984,0 -0.377976,0 -0.09449,0 -0.188988,0 -0.283482,0 -0.02362,0 -0.04974,0.0106 -0.07087,0 -0.02988,-0.0148 -0.04725,-0.0472 -0.07087,-0.0709"
         style="fill:none;stroke:#000000;stroke-width:0.26458332px;stroke-linecap:butt;stroke-linejoin:miter;stroke-opacity:1" />
      <path
         inkscape:connector-curvature="0"
         id="path4528"
         d="m 9.9218749,282.49517 c -0.093148,-0.01 -0.3049434,0.19614 -0.4252233,0.23622 -0.038092,0.0127 -0.078921,0.0148 -0.1181174,0.0236 -0.031694,0.007 -0.062657,0.0172 -0.094494,0.0236 -0.046969,0.009 -0.09596,0.01 -0.141741,0.0236 -0.057319,0.0177 -0.1099113,0.048 -0.1653645,0.0709 -0.078423,0.0323 -0.1557764,0.0677 -0.2362354,0.0945 -0.085176,0.0284 -0.1746827,0.0425 -0.2598584,0.0709 -0.2666936,0.0889 -0.0678,0.0485 -0.3307291,0.16536 -0.014391,0.006 -0.033743,-0.008 -0.047247,0 -0.028648,0.0172 -0.047247,0.0473 -0.070871,0.0709 -0.023625,0.0236 -0.047247,0.0473 -0.07087,0.0709 -0.023625,0.0236 -0.047247,0.0472 -0.07087,0.0709 -0.023625,0.0236 -0.052339,0.0431 -0.070871,0.0709 -0.064245,0.0201 -0.011565,0.0643 -0.023625,0.0945 -0.013078,0.0327 -0.036111,0.0611 -0.047247,0.0945 -0.00498,0.0151 0.00309,0.0318 0,0.0473 -0.00488,0.0243 -0.017584,0.0467 -0.023625,0.0709 -0.0019,0.008 0,0.0159 0,0.0236 0,0.0159 0,0.0315 0,0.0472 0,0.008 0.00352,0.0167 0,0.0236 -0.00498,0.01 -0.018642,0.0138 -0.023625,0.0235 -0.00352,0.007 0,0.0159 0,0.0236 0,0.008 -0.00557,0.018 0,0.0236 0.00557,0.006 0.015748,0 0.023625,0 0.031498,0 0.062996,0 0.094494,0 0.1102429,0 0.220486,0 0.3307292,0"
         style="fill:none;stroke:#000000;stroke-width:0.26458332px;stroke-linecap:butt;stroke-linejoin:miter;stroke-opacity:1" />
      <text
         id="text4532"
         y="290.7453"
         x="5.1983275"
         style="font-style:normal;font-weight:normal;font-size:4.44465685px;line-height:0;font-family:sans-serif;letter-spacing:0px;word-spacing:0px;fill:#000000;fill-opacity:1;stroke:none;stroke-width:0.11111642"
         xml:space="preserve"><tspan
           style="line-height:0;stroke-width:0.11111642"
           y="290.7453"
           x="5.1983275"
           id="tspan4530"
           sodipodi:role="line">rock</tspan></text>
    </g>
    <g
       id="g4600"
       transform="matrix(0.87088375,0,0,0.95417672,2.4696167,14.120833)">
      <rect
         y="288.04648"
         x="25.123335"
         height="8.2853556"
         width="2.3720171"
         id="rect4591"
         style="fill:#b97b17;fill-opacity:1;stroke:#df8935;stroke-width:0.26458332;stroke-opacity:1" />
      <g
         id="g4589">
        <ellipse
           style="fill:#004319;fill-opacity:1;stroke:#00e900;stroke-width:0.26458332;stroke-opacity:1"
           id="path4548-8"
           cx="27.79603"
           cy="286.34262"
           rx="5.9801559"
           ry="1.8708867" />
        <g
           id="g4582">
          <ellipse
             ry="1.8708867"
             rx="5.9801555"
             cy="283.77014"
             cx="25.524239"
             id="path4548"
             style="fill:#004319;fill-opacity:1;stroke:#00e900;stroke-width:0.26458332;stroke-opacity:1" />
          <ellipse
             ry="1.8708867"
             rx="5.9801559"
             cy="281.69882"
             cx="21.64883"
             id="path4548-4"
             style="fill:#004319;fill-opacity:1;stroke:#00e900;stroke-width:0.26458332;stroke-opacity:1" />
          <ellipse
             ry="1.8708867"
             rx="5.9801559"
             cy="285.37375"
             cx="22.584274"
             id="path4548-6"
             style="fill:#004319;fill-opacity:1;stroke:#00e900;stroke-width:0.26458332;stroke-opacity:1" />
        </g>
      </g>
    </g>
  </g>
</svg>
