<?xml version="1.0" encoding="UTF-8" standalone="no"?>
<!-- Created with Inkscape (http://www.inkscape.org/) -->

<svg
   xmlns:dc="http://purl.org/dc/elements/1.1/"
   xmlns:cc="http://creativecommons.org/ns#"
   xmlns:rdf="http://www.w3.org/1999/02/22-rdf-syntax-ns#"
   xmlns:svg="http://www.w3.org/2000/svg"
   xmlns="http://www.w3.org/2000/svg"
   xmlns:sodipodi="http://sodipodi.sourceforge.net/DTD/sodipodi-0.dtd"
   xmlns:inkscape="http://www.inkscape.org/namespaces/inkscape"
   width="210mm"
   height="297mm"
   id="svg2"
   version="1.1"
   inkscape:version="0.48.5 r10040"
   sodipodi:docname="tiles.svg">
  <defs
     id="defs4" />
  <sodipodi:namedview
     id="base"
     pagecolor="#ffffff"
     bordercolor="#666666"
     borderopacity="1.0"
     inkscape:pageopacity="0.0"
     inkscape:pageshadow="2"
     inkscape:zoom="11.2"
     inkscape:cx="27.110643"
     inkscape:cy="14.683503"
     inkscape:document-units="px"
     inkscape:current-layer="layer1"
     showgrid="false"
     inkscape:window-width="1920"
     inkscape:window-height="1018"
     inkscape:window-x="-8"
     inkscape:window-y="-8"
     inkscape:window-maximized="1" />
  <metadata
     id="metadata7">
    <rdf:RDF>
      <cc:Work
         rdf:about="">
        <dc:format>image/svg+xml</dc:format>
        <dc:type
           rdf:resource="http://purl.org/dc/dcmitype/StillImage" />
        <dc:title></dc:title>
      </cc:Work>
    </rdf:RDF>
  </metadata>
  <g
     inkscape:label="Capa 1"
     inkscape:groupmode="layer"
     id="layer1">
    <g
       id="g3023"
       inkscape:export-filename="C:\Users\Gnus\Documents\Emperor\Emperor\Assets\Textures\tiles.png"
       inkscape:export-xdpi="90"
       inkscape:export-ydpi="90">
      <rect
         y="1036.3622"
         x="32"
         height="16"
         width="16"
         id="rect2985"
         style="fill:#4d4d4d;fill-opacity:1;fill-rule:nonzero;stroke:none" />
      <rect
         style="fill:#0000ff;fill-opacity:1;fill-rule:nonzero;stroke:none"
         id="rect2989"
         width="16"
         height="16"
         x="16"
         y="1036.3622" />
      <rect
         y="1036.3622"
         x="0"
         height="16"
         width="16"
         id="rect2991"
         style="fill:#008000;fill-opacity:1;fill-rule:nonzero;stroke:none" />
      <rect
         y="1036.3622"
         x="48"
         height="16"
         width="16"
         id="rect2993"
         style="fill:#d4aa00;fill-opacity:1;fill-rule:nonzero;stroke:none" />
      <path
         inkscape:connector-curvature="0"
         id="path2995"
         d="m 34.107143,1050.2193 c 0,-1.3095 0,-2.619 0,-3.9285 0,-0.2977 0,-0.5953 0,-0.8929 0,-0.089 -0.03993,-0.188 0,-0.2679 0.01331,-0.027 0.06824,0.021 0.08929,0 0.04209,-0.042 -0.04209,-0.1364 0,-0.1785 0.02105,-0.021 0.06824,0.021 0.08928,0 0.04209,-0.042 -0.01882,-0.1221 0,-0.1786 0.02105,-0.063 0.06824,-0.1154 0.08929,-0.1786 0.0094,-0.028 -0.01331,-0.063 0,-0.089 0.01882,-0.038 0.07046,-0.052 0.08929,-0.089 0.01331,-0.027 0,-0.06 0,-0.089 0,-0.03 0,-0.06 0,-0.089 0,-0.1786 0,-0.3572 0,-0.5357 0,-0.06 0,-0.1191 0,-0.1786 0,-0.03 -0.02105,-0.068 0,-0.089 0.04706,-0.047 0.148809,-0.03 0.178571,-0.089 0.0089,-0.018 -0.0083,-0.4856 0,-0.5357 0.02976,-0.089 0.05952,-0.1786 0.08929,-0.2678 0.02976,0 0.06824,0.021 0.08929,0 0.04706,-0.047 0.05952,-0.1191 0.08928,-0.1786 0.02976,-0.06 0.05952,-0.1191 0.08929,-0.1786 0.02976,-0.06 0.06824,-0.1154 0.08929,-0.1786 0.04057,-0.1217 -0.104023,-0.1389 0.08929,-0.2678 0.04953,-0.033 0.125331,0.027 0.178571,0 0.02662,-0.013 -0.01331,-0.063 0,-0.089 0.01882,-0.038 0.07046,-0.052 0.08929,-0.089 0.01331,-0.027 -0.02976,-0.089 0,-0.089 0.04209,0 0.05164,0.071 0.08928,0.089 0.02662,0.013 0.06267,-0.013 0.08929,0 0.102359,0.051 0.124197,0.1863 0.178572,0.2679 0.02335,0.035 0.07046,0.052 0.08928,0.089 0.01001,0.02 0,0.3359 0,0.3571 0,0.2679 0,0.5357 0,0.8036 0,0.119 0,0.2381 0,0.3571 0,0.03 -0.02105,0.068 0,0.089 0.02105,0.021 0.05952,0 0.08929,0 0.02976,0 0.05952,0 0.08929,0 0.02976,0 0.06267,0.013 0.08928,0 0.03765,-0.019 0.05952,-0.059 0.08929,-0.089 0.183743,-0.1837 0.304933,-0.2881 0.446429,-0.5357 0.04669,-0.082 0.03049,-0.1944 0.08928,-0.2679 0.06704,-0.084 0.219868,-0.083 0.267858,-0.1785 0.02658,-0.053 -0.02563,-0.6374 0,-0.7143 0.267857,-0.8036 0.08928,0.1786 0.267857,-0.2679 0.04557,-0.1139 0.02615,-0.2519 0.08928,-0.3571 0.03424,-0.057 0.131514,-0.042 0.178572,-0.089 0.02105,-0.021 0,-0.059 0,-0.089 0.05952,-0.06 0.10853,-0.1319 0.178571,-0.1786 0.02476,-0.017 0.05952,0 0.08929,0 0.08929,-0.089 0.166842,-0.1921 0.267857,-0.2678 0.02381,-0.018 0.07278,0.025 0.08929,0 0.05221,-0.078 0.03282,-0.1926 0.08929,-0.2679 0.03993,-0.053 0.123198,-0.052 0.178571,-0.089 0.03502,-0.023 0.05427,-0.066 0.08929,-0.089 0.05537,-0.037 0.131513,-0.042 0.178571,-0.089 0.04706,-0.047 0.05237,-0.1232 0.08929,-0.1786 0.02335,-0.035 0.07046,-0.052 0.08929,-0.089 0.04209,-0.084 0.0472,-0.1837 0.08928,-0.2678 0.10096,-0.202 0.142293,-0.2316 0.267857,-0.3572 0.02976,-0.03 0.07046,-0.052 0.08929,-0.089 0.01331,-0.027 -0.02105,-0.068 0,-0.089 0.02105,-0.021 0.06824,-0.021 0.08929,0 0.02105,0.021 0,0.06 0,0.089 0,0.089 0,0.1786 0,0.2679 0,0.1488 0,0.2976 0,0.4464 0,0.089 -0.01263,0.1795 0,0.2679 0.02951,0.2065 0.07558,0.364 0.178571,0.5357 0.05521,0.092 0.138718,0.1682 0.178572,0.2678 0.04421,0.1106 -0.06604,0.2581 0,0.3572 0.03692,0.055 0.131513,0.042 0.178571,0.089 0.02105,0.021 -0.01331,0.063 0,0.089 0.01882,0.038 0.07598,0.049 0.08929,0.089 0.02752,0.083 -0.02941,0.4769 0,0.5358 0.04799,0.096 0.138718,0.1682 0.178571,0.2678 0.03581,0.09 -0.03343,0.4354 0,0.5357 0.04209,0.1263 0.136482,0.2309 0.178572,0.3572 0.02752,0.083 -0.02941,0.4769 0,0.5357 0.01882,0.038 0.07046,0.052 0.08928,0.089 0.02662,0.053 -0.04209,0.1365 0,0.1785 0.02105,0.021 0.05952,0 0.08929,0 0.05952,0 0.136482,0.042 0.178572,0 0.04209,-0.042 -0.03572,-0.1309 0,-0.1785 0.06438,-0.086 0.19916,-0.096 0.267857,-0.1786 0.08521,-0.1023 0.112535,-0.2416 0.178571,-0.3571 0.05324,-0.093 0.109875,-0.1855 0.178572,-0.2679 0.134725,-0.1617 0.320159,-0.2781 0.446428,-0.4464 0.308013,-0.4107 -0.181563,0.094 0.178572,-0.4465 0.01651,-0.025 0.07597,0.027 0.08928,0 0.02662,-0.053 0,-0.119 0,-0.1785 0,-0.03 -0.02105,-0.068 0,-0.089 0.184736,-0.1848 -0.0072,0.2823 0.178572,-0.089 0.02662,-0.053 -0.02662,-0.1253 0,-0.1786 0.09871,-0.1974 0.05541,-0.028 0.178571,-0.089 0.371586,-0.1858 -0.09545,0.01 0.08929,-0.1785 0.02105,-0.021 0.05952,0 0.08929,0 0.02976,0 0.05952,0 0.08928,0 0.375857,0 0.227968,0.038 0.267857,0.3571 0.01882,0.1506 0.05636,0.2983 0.08929,0.4464 0.02976,0.1191 0.05952,0.2381 0.08929,0.3572 0.05952,0.089 0.144637,0.166 0.178571,0.2678 0.02824,0.085 -0.01468,0.1798 0,0.2679 0.07543,0.4526 0.09157,0.095 0.267857,0.5357 0.02211,0.055 0,0.1191 0,0.1786 0,0.2083 0,0.4166 0,0.625 0,0.06 -0.01167,0.1202 0,0.1786 0.01846,0.092 0.05433,0.1804 0.08929,0.2678 0.02472,0.062 0.07623,0.1133 0.08929,0.1786 0.01751,0.087 0,0.1786 0,0.2678 0,0.03 -0.0094,0.061 0,0.089 0.129215,0.3877 0.08929,-0.061 0.08929,0.4465 0,0.1785 0,0.3571 0,0.5357 0,0.03 0.02976,0.089 0,0.089 -0.02976,0 0,-0.06 0,-0.089 0,-0.1191 -0.02887,-0.2417 0,-0.3572 0.03228,-0.1291 0.142006,-0.2291 0.178571,-0.3571 0.02453,-0.086 -0.02824,-0.1832 0,-0.2679 0.03393,-0.1018 0.130582,-0.1719 0.178571,-0.2678 0.01331,-0.027 0,-0.06 0,-0.089 0,-0.06 -0.01444,-0.1208 0,-0.1786 0.01614,-0.065 0.05952,-0.119 0.08929,-0.1786 0.02976,-0.089 0.06646,-0.1765 0.08929,-0.2678 0.0072,-0.029 0,-0.06 0,-0.089 0,-0.059 0,-0.1191 0,-0.1786 0,-0.03 0.02105,-0.1103 0,-0.089 -0.13349,0.1335 -0.08929,0.3759 -0.08929,0.5358 0,0.119 0,0.238 0,0.3571 0,0.06 0.01167,0.1202 0,0.1786 -0.0929,0.4645 -0.05952,0.089 -0.178571,0.4464 -0.0094,0.028 0,0.06 0,0.089 0,0.06 0,0.119 0,0.1786 0,0.2083 0,0.4166 0,0.625 0,0.238 0,0.4761 0,0.7142 0,0.089 -0.02166,0.1813 0,0.2679 0.01614,0.065 0.07834,0.1129 0.08928,0.1786 0.01957,0.1174 -0.03765,0.2442 0,0.3571 0.02662,0.08 0.147308,0.1004 0.178572,0.1786 0.03316,0.083 -0.01751,0.1803 0,0.2678 0.01305,0.065 0.07314,0.114 0.08929,0.1786 0.01444,0.058 -0.01882,0.1221 0,0.1786 0.02662,0.08 0.140925,0.1033 0.178571,0.1786 0.02271,0.045 -0.02271,0.1331 0,0.1785 0.05959,0.1192 0.118979,0.059 0.178571,0.1786 0.01331,0.027 0,0.06 0,0.089 0,0.03 0,0.06 0,0.089 0,0.2083 0,0.4166 0,0.625 0,0.03 0,0.06 0,0.089 0,0.03 0.02105,0.068 0,0.089 -0.02104,0.021 -0.06824,-0.021 -0.08928,0 -0.02105,0.021 0,0.06 0,0.089 0,0.03 -0.01331,0.063 0,0.089 0.01882,0.038 0.05952,0.059 0.08928,0.089 0.02976,0.03 0.05164,0.071 0.08929,0.089 0.02662,0.013 0.06452,-0.016 0.08929,0 0.120143,0.08 0.186502,0.2599 0.267857,0.1786 0.02105,-0.021 0,-0.06 0,-0.089"
         style="fill:none;stroke:#000000;stroke-width:1px;stroke-linecap:butt;stroke-linejoin:miter;stroke-opacity:1" />
      <path
         inkscape:connector-curvature="0"
         id="path2997"
         d="m 17.5,1041.2908 c -0.01547,0.1542 0.566937,0.06 0.625,0.089 0.408626,0.2044 -0.378876,-0.037 0.267857,0.1786 0.02824,0.01 0.05952,0 0.08929,0 0.08929,0 0.178571,0 0.267857,0 0.238095,0 0.476191,0 0.714286,0 0.297619,0 0.595238,0 0.892857,0 0.128182,0 0.340346,0.026 0.446428,0 0.04083,-0.01 0.05952,-0.06 0.08929,-0.089 0.08929,-0.03 0.176552,-0.066 0.267857,-0.089 0.05775,-0.014 0.125332,0.027 0.178572,0 0.0562,-0.028 0.122367,-0.1504 0.178571,-0.1785 0.02662,-0.013 0.06824,0.021 0.08929,0 0.04706,-0.047 0.05237,-0.1232 0.08929,-0.1786 0.04669,-0.07 0.140925,-0.1033 0.178571,-0.1786 0.01359,-0.027 0,-0.2276 0,-0.2678 0,-0.022 -0.0029,-0.265 0,-0.2679 0.02105,-0.021 0.05952,0 0.08929,0 0.04669,0 0.333666,-0.012 0.357143,0 0.03765,0.019 0.07598,0.049 0.08929,0.089 0.02465,0.074 -0.02839,0.3896 0,0.4464 0.03765,0.075 0.140926,0.1033 0.178572,0.1786 0.01331,0.027 0,0.06 0,0.089 0,0.093 -0.01756,0.4655 0,0.5357 0.01614,0.065 0.04223,0.1315 0.08929,0.1786 0.02104,0.021 0.06824,-0.021 0.08929,0 0.02765,0.028 -0.02765,0.4187 0,0.4464 0.02105,0.021 0.05952,0 0.08929,0 0.05952,0.03 0.131514,0.042 0.178571,0.089 0.02105,0.021 -0.02662,0.076 0,0.089 0.07143,0.036 0.196429,-0.036 0.267857,0 0.408626,0.2043 -0.378876,-0.037 0.267858,0.1785 0.02823,0.01 0.06105,-0.01 0.08929,0 0.06314,0.021 0.115437,0.068 0.178572,0.089 0.04832,0.016 0.326725,0 0.357143,0 0.267857,0 0.535714,0 0.803571,0 0.178571,0 0.357143,0 0.535714,0 0.05952,0 0.125332,0.027 0.178572,0 0.05324,-0.027 -0.04209,-0.1365 0,-0.1785 0.07588,-0.076 0.171878,-0.1306 0.267857,-0.1786 0.05663,-0.028 0.388426,0.029 0.446428,0 0.03765,-0.019 0.05952,-0.06 0.08929,-0.089 0.02976,-0.03 0.07046,-0.052 0.08929,-0.089 0.01331,-0.027 -0.02105,-0.068 0,-0.089 0.04209,-0.042 0.136482,0.042 0.178571,0 0.02105,-0.021 0,-0.06 0,-0.089 0,-0.2083 0,-0.4166 0,-0.625 0,-0.03 0,-0.06 0,-0.089 0,-0.03 0.02105,-0.068 0,-0.089 -0.02104,-0.021 -0.06824,-0.021 -0.08929,0 -0.0022,0 0,0.4129 0,0.4464 0,0.3274 0,0.6548 0,0.9821 0,0.04 -0.0119,0.512 0,0.5358 0.01882,0.038 0.05164,0.07 0.08929,0.089 0.07143,0.036 0.196429,-0.036 0.267857,0 0.02662,0.013 -0.01331,0.063 0,0.089 0.01882,0.038 0.05164,0.071 0.08929,0.089 0.02717,0.014 0.227647,0 0.267857,0 0.120994,0 0.565923,0.02 0.625,0 0.03993,-0.013 0.04936,-0.076 0.08929,-0.089 0.05647,-0.019 0.122102,0.019 0.178572,0 0.07986,-0.027 0.108529,-0.1319 0.178571,-0.1785 0.05537,-0.037 0.119048,-0.06 0.178571,-0.089 0.05952,-0.03 0.115437,-0.068 0.178572,-0.089 0.05604,-0.019 0.285264,0 0.357143,0 0.02976,0 0.05952,0 0.08929,0 0.02976,0 0.06267,0.013 0.08929,0 0.0562,-0.028 0.122368,-0.1505 0.178572,-0.1786 0.02662,-0.013 0.06824,0.021 0.08929,0 0.329352,-0.3293 -0.213815,-0.036 0.267857,-0.3571 0.02476,-0.016 0.05952,0 0.08929,0 0.02976,-0.03 0.05952,-0.06 0.08929,-0.089 0.02976,-0.03 0.07046,-0.052 0.08929,-0.089 0.02662,-0.053 -0.04209,-0.1365 0,-0.1786 0.02104,-0.021 0.08929,-0.03 0.08929,0 0,0.03 -0.05952,0 -0.08929,0"
         style="fill:none;stroke:#000000;stroke-width:1px;stroke-linecap:butt;stroke-linejoin:miter;stroke-opacity:1" />
      <path
         inkscape:connector-curvature="0"
         id="path2999"
         d="m 18.392857,1048.9693 c 0.107377,-0.1444 0.332087,-0.2047 0.446429,-0.3571 0.06438,-0.086 0.09272,-0.2035 0.178571,-0.2679 0.04762,-0.036 0.129045,0.033 0.178572,0 0.05537,-0.037 0.03605,-0.1386 0.08929,-0.1785 0.06321,-0.2723 0.247387,-0.034 0.357143,-0.089 0.07529,-0.038 0.09871,-0.152 0.178572,-0.1786 0.05647,-0.019 0.125331,0.027 0.178571,0 0.02662,-0.013 -0.02662,-0.076 0,-0.089 0.05324,-0.027 0.122102,0.019 0.178571,0 0.07986,-0.027 0.10853,-0.1319 0.178572,-0.1786 0.05537,-0.037 0.131514,-0.042 0.178571,-0.089 0.02105,-0.021 -0.02104,-0.068 0,-0.089 0.04706,-0.047 0.119048,-0.06 0.178572,-0.089 0.253864,-0.1269 0.131513,-0.042 0.357143,-0.2679 0.02976,-0.03 0.07046,-0.052 0.08929,-0.089 0.01331,-0.027 0,-0.06 0,-0.089 0.05952,-0.06 0.131877,-0.1086 0.178572,-0.1786 0.01651,-0.025 0,-0.06 0,-0.089 0,-0.059 -0.01882,-0.1221 0,-0.1786 0.01331,-0.04 0.06594,-0.054 0.08929,-0.089 0.01109,-0.017 0.172851,-0.3514 0.178572,-0.3571 0.02105,-0.021 0.06824,0.021 0.08929,0 0.02104,-0.021 -0.02104,-0.068 0,-0.089 0.04706,-0.047 0.115437,-0.068 0.178571,-0.089 0.02823,-0.01 0.05952,0 0.08929,0 0.05952,0 0.129044,-0.033 0.178571,0 0.01482,0.01 0.151204,0.3207 0.178572,0.3572 0.05051,0.067 0.128063,0.1112 0.178571,0.1785 0.03993,0.053 0.04223,0.1316 0.08929,0.1786 0.04706,0.047 0.131513,0.042 0.178571,0.089 0.02105,0.021 0,0.06 0,0.089 0.02976,0.03 0.05427,0.066 0.08929,0.089 0.05537,0.037 0.131514,0.042 0.178571,0.089 0.184736,0.1847 -0.2823,-0.01 0.08929,0.1785 0.02662,0.013 0.06267,-0.013 0.08929,0 0.03765,0.019 0.05952,0.06 0.08929,0.089 0.02976,0.03 0.07046,0.052 0.08929,0.089 0.01331,0.027 -0.02105,0.068 0,0.089 0.04706,0.047 0.131514,0.042 0.178572,0.089 0.02104,0.021 -0.02104,0.068 0,0.089 0.02104,0.021 0.06824,-0.021 0.08929,0 0.04706,0.047 0.04223,0.1315 0.08929,0.1785 0.02105,0.021 0.06824,-0.021 0.08929,0 0.02104,0.021 -0.02662,0.076 0,0.089 0.05324,0.027 0.136482,-0.042 0.178571,0 0.04209,0.042 -0.03302,0.1291 0,0.1786 0.03692,0.055 0.123199,0.052 0.178572,0.089 0.03785,0.025 0.249386,0.2309 0.267857,0.2678 0.01331,0.027 -0.02105,0.068 0,0.089 0.02104,0.021 0.05952,0 0.08929,0 0.14881,0 0.29762,0 0.446429,0 0.05952,0 0.125332,0.027 0.178571,0 0.02662,-0.013 -0.02104,-0.068 0,-0.089 0.04706,-0.047 0.131514,-0.042 0.178572,-0.089 0.02105,-0.021 0,-0.06 0,-0.089 0,-0.06 -0.02662,-0.1254 0,-0.1786 0.03765,-0.075 0.131877,-0.1085 0.178571,-0.1786 0.01651,-0.025 -0.0094,-0.061 0,-0.089 0.02105,-0.063 0.05952,-0.119 0.08929,-0.1785 0.02976,-0.06 0.05237,-0.1232 0.08929,-0.1786 0.02335,-0.035 0.07598,-0.049 0.08929,-0.089 0.01882,-0.056 -0.01882,-0.1221 0,-0.1786 0.0929,-0.2787 0.05952,0.03 0.178572,-0.089 0.02105,-0.021 -0.02105,-0.068 0,-0.089 0.02105,-0.021 0.06452,0.016 0.08929,0 0.07004,-0.047 0.10853,-0.1319 0.178571,-0.1786 0.02209,-0.015 0.311307,0 0.357143,0 0.106334,0 0.310829,-0.05 0.357143,0.089 0.01882,0.056 -0.02662,0.1253 0,0.1785 0.01331,0.027 0.06824,-0.021 0.08929,0 0.04706,0.047 0.05237,0.1232 0.08929,0.1786 0.02335,0.035 0.07046,0.052 0.08929,0.089 0.01331,0.027 -0.01331,0.063 0,0.089 0.03765,0.075 0.140925,0.1033 0.178571,0.1786 0.01331,0.027 -0.01331,0.063 0,0.089 0.01882,0.038 0.07046,0.052 0.08929,0.089 0.02563,0.051 -0.02396,0.4638 0,0.5357 0.01331,0.04 0.07046,0.052 0.08929,0.089 0.01331,0.027 -0.02105,0.068 0,0.089 0.04209,0.042 0.136482,-0.042 0.178571,0 0.02105,0.021 -0.02662,0.076 0,0.089 0.05612,0.028 0.301025,-0.028 0.357143,0 0.03765,0.019 0.04936,0.076 0.08929,0.089 0.048,0.016 0.281549,0 0.357143,0 0.02976,0 0.06824,0.021 0.08929,0 0.02105,-0.021 -0.02104,-0.068 0,-0.089 0.02105,-0.021 0.06267,0.013 0.08929,0 0.03765,-0.019 0.05164,-0.071 0.08929,-0.089 0.02662,-0.013 0.06452,0.016 0.08929,0 0.07004,-0.047 0.111227,-0.1281 0.178571,-0.1786 0.137444,-0.103 0.208951,-0.089 0.357143,-0.089 0.02976,0 0.06267,0.013 0.08929,0 0.141443,-0.071 0.08929,-0.2989 0.08929,-0.089"
         style="fill:none;stroke:#000000;stroke-width:1px;stroke-linecap:butt;stroke-linejoin:miter;stroke-opacity:1" />
      <path
         inkscape:connector-curvature="0"
         id="path3001"
         d="m 2.3214286,1049.505 c -0.1119896,-0.3262 -0.089286,-0.6473 -0.089286,-0.9821 0,-0.1488 0,-0.2976 0,-0.4464 0,-0.06 0.033018,-0.1291 0,-0.1786 -0.036915,-0.055 -0.1315138,-0.042 -0.1785715,-0.089 -0.021045,-0.021 0.01331,-0.063 0,-0.089 -0.018823,-0.038 -0.070463,-0.052 -0.089286,-0.089 -0.029005,-0.058 0.029004,-0.4777 0,-0.5357 -0.04799,-0.096 -0.1141866,-0.182 -0.1785714,-0.2678 -0.050508,-0.067 -0.1409253,-0.1033 -0.1785714,-0.1786 -0.015946,-0.032 0,-0.5151 0,-0.5357 0,-0.03 0.021045,-0.068 0,-0.089 -0.021045,-0.021 -0.062666,0.013 -0.089286,0 -0.1974156,-0.099 -0.027707,-0.055 -0.089286,-0.1786 -0.018823,-0.038 -0.065939,-0.054 -0.089286,-0.089 -0.036915,-0.055 -0.042228,-0.1315 -0.089286,-0.1785 -0.047058,-0.047 -0.1315137,-0.042 -0.1785714,-0.089 -0.021045,-0.021 0.01331,-0.063 0,-0.089 -0.018823,-0.038 -0.059524,-0.059 -0.0892857,-0.089 -0.0297619,-0.03 -0.0516395,-0.071 -0.0892857,-0.089 -0.0266199,-0.013 -0.0682409,0.021 -0.0892857,0 -0.0210448,-0.021 -0.0210448,-0.068 0,-0.089 0.0210449,-0.021 0.0595238,0 0.0892857,0 0.0297619,0 0.0595238,0 0.0892857,0"
         style="fill:none;stroke:#000000;stroke-width:1px;stroke-linecap:butt;stroke-linejoin:miter;stroke-opacity:1" />
      <path
         inkscape:connector-curvature="0"
         id="path3003"
         d="m 4.6428572,1047.0943 c 0.029762,-0.1488 0.070463,-0.2958 0.089286,-0.4464 0.020492,-0.1639 0,-0.4433 0,-0.625 0,-0.3869 0,-0.7738 0,-1.1607 0,-0.1488 0,-0.2976 0,-0.4464 0,-0.06 0.014437,-0.1209 0,-0.1786 -0.016141,-0.065 -0.042228,-0.1315 -0.089286,-0.1786 -0.047058,-0.047 -0.1315138,-0.042 -0.1785715,-0.089 -0.021045,-0.021 0.021045,-0.068 0,-0.089 -0.047058,-0.047 -0.1253317,-0.049 -0.1785714,-0.089 -0.067344,-0.051 -0.1032791,-0.141 -0.1785714,-0.1786 -0.053825,-0.027 -0.4197205,0.027 -0.4464286,0 -0.021045,-0.021 0.021045,-0.068 0,-0.089 -0.047058,-0.047 -0.1315137,-0.042 -0.1785714,-0.089 -0.021045,-0.021 0.01331,-0.063 0,-0.089 -0.037646,-0.075 -0.1409253,-0.1033 -0.1785715,-0.1785 -0.01331,-0.027 0.021045,-0.068 0,-0.089 -0.021045,-0.021 -0.059524,0 -0.089286,0"
         style="fill:none;stroke:#000000;stroke-width:1px;stroke-linecap:butt;stroke-linejoin:miter;stroke-opacity:1" />
      <path
         inkscape:connector-curvature="0"
         id="path3005"
         d="m 7.5,1044.6836 c 0,-0.3869 0,-0.7738 0,-1.1607 0,-0.059 0,-0.1191 0,-0.1786 0,-0.06 0.022107,-0.1233 0,-0.1785 -0.039853,-0.1 -0.1305818,-0.1719 -0.1785714,-0.2679 -0.024218,-0.048 0.024431,-0.3327 0,-0.3571 -0.047058,-0.047 -0.1315137,-0.042 -0.1785714,-0.089 -0.00287,0 0,-0.2462 0,-0.2679 0,-0.2381 0,-0.4762 0,-0.7143 0,-0.03 0,-0.06 0,-0.089 0,-0.06 0.033018,-0.129 0,-0.1785 -0.036915,-0.055 -0.1231988,-0.052 -0.1785715,-0.089 -0.035021,-0.023 -0.059524,-0.06 -0.089286,-0.089 -0.059524,-0.059 -0.1409252,-0.1033 -0.1785714,-0.1786 -0.054878,-0.1097 -0.034408,-0.2474 -0.089286,-0.3571 -0.01331,-0.027 -0.068241,0.021 -0.089286,0 -0.021045,-0.021 0.021045,-0.068 0,-0.089 -0.021045,-0.021 -0.062666,0.013 -0.089286,0 -0.1103305,-0.055 -0.089286,-0.086 -0.089286,-0.1786"
         style="fill:none;stroke:#000000;stroke-width:1px;stroke-linecap:butt;stroke-linejoin:miter;stroke-opacity:1" />
      <path
         inkscape:connector-curvature="0"
         id="path3007"
         d="m 11.875,1040.2193 c -0.06831,0.2732 -0.06232,0.4195 -0.267857,0.625 -0.02105,0.021 -0.06165,-0.011 -0.08929,0 -0.123579,0.05 -0.230874,0.1365 -0.357143,0.1786 -0.05647,0.019 -0.125331,-0.027 -0.178571,0 -0.280563,0.1403 -0.05985,0.2084 -0.357143,0.2679 -0.08755,0.017 -0.178571,0 -0.267857,0 -0.02976,0 -0.06267,-0.013 -0.08929,0 -0.03765,0.019 -0.04845,0.079 -0.08929,0.089 -0.08662,0.022 -0.1879971,-0.04 -0.2678567,0 -0.059524,0.03 -0.042228,0.1316 -0.089286,0.1786 -0.021045,0.021 -0.062666,-0.013 -0.089286,0 -0.095979,0.048 -0.1718779,0.1306 -0.2678572,0.1786 -0.02662,0.013 -0.068241,-0.021 -0.089286,0 -0.021045,0.021 0,0.06 0,0.089 0,0.059 -0.010498,0.3361 0,0.3571 0.01331,0.027 0.059524,0 0.089286,0 0.029762,0 0.059524,0 0.089286,0 0.1558353,0 0.062666,-0.013 0.2678571,0.089"
         style="fill:none;stroke:#000000;stroke-width:1px;stroke-linecap:butt;stroke-linejoin:miter;stroke-opacity:1" />
      <path
         inkscape:connector-curvature="0"
         id="path3009"
         d="m 12.767857,1047.5408 c 0,-0.1786 -0.02215,-0.3586 0,-0.5358 0.0083,-0.066 0.06824,-0.1154 0.08929,-0.1785 0.0094,-0.028 0,-0.06 0,-0.089 0,-0.06 0,-0.1191 0,-0.1786 0,-0.06 -0.01444,-0.1208 0,-0.1786 0.01614,-0.065 0.06824,-0.1154 0.08929,-0.1785 0.05498,-0.165 -0.136242,-0.042 0.08929,-0.2679 0.04706,-0.047 0.141657,-0.034 0.178572,-0.089 0.03302,-0.05 -0.01882,-0.1221 0,-0.1785 0.01331,-0.04 0.07598,-0.049 0.08929,-0.089 0.01882,-0.056 0,-0.1191 0,-0.1786 0.02976,-0.059 0.06824,-0.1154 0.08929,-0.1786 0.03173,-0.095 -0.05338,-0.277 0,-0.3571 0.03692,-0.055 0.141657,-0.034 0.178572,-0.089 0.178571,-0.2679 -0.08929,-0.089 0,-0.2679 0.04799,-0.096 0.138718,-0.1682 0.178571,-0.2678 0.01077,-0.027 -0.01245,-0.434 0,-0.4464 0.02105,-0.021 0.06267,0.013 0.08929,0 0.03765,-0.019 0.05164,-0.071 0.08929,-0.089 0.02662,-0.013 0.06824,0.021 0.08929,0 0.02105,-0.021 -0.01651,-0.065 0,-0.089 0.345125,-0.5177 0.04295,-0.066 0.267857,-0.1786 0.220661,-0.1103 -0.03082,-0.089 0.178572,-0.089"
         style="fill:none;stroke:#000000;stroke-width:1px;stroke-linecap:butt;stroke-linejoin:miter;stroke-opacity:1" />
      <path
         inkscape:connector-curvature="0"
         id="path3011"
         d="m 9.8214286,1047.8086 c -0.2217425,-0.1478 -0.032038,-0.364 -0.089286,-0.5357 -0.01331,-0.04 -0.070463,-0.052 -0.089286,-0.089 -8.54e-4,0 -0.00419,-0.6082 0,-0.625 -0.033373,-0.1945 0.1488095,-0.03 0.1785714,-0.089 0.02662,-0.053 -0.018823,-0.1221 0,-0.1785 0.01331,-0.04 0.070463,-0.052 0.089286,-0.089 0.02662,-0.053 -0.02662,-0.1254 0,-0.1786 0.018823,-0.038 0.070463,-0.052 0.089286,-0.089 0.01331,-0.027 0,-0.06 0,-0.089 0,-0.03 0,-0.06 0,-0.089 0,-0.1488 0,-0.2976 0,-0.4464 0,-0.03 0.02105,-0.068 0,-0.089 -0.021045,-0.021 -0.059524,0 -0.089286,0"
         style="fill:none;stroke:#000000;stroke-width:1px;stroke-linecap:butt;stroke-linejoin:miter;stroke-opacity:1" />
      <path
         inkscape:connector-curvature="0"
         id="path3013"
         d="m 13.571429,1050.755 c 0.148809,-0.03 0.297619,-0.06 0.446428,-0.089 0,-0.03 -0.02104,-0.068 0,-0.089 0.04706,-0.047 0.131514,-0.042 0.178572,-0.089 0.02443,-0.024 -0.02422,-0.3087 0,-0.3572 0.185792,-0.3715 -0.0062,0.095 0.178571,-0.089 0.04209,-0.042 -0.02662,-0.1254 0,-0.1786 0.01882,-0.038 0.05952,-0.06 0.08929,-0.089 0.02976,-0.03 0.05164,-0.071 0.08929,-0.089 0.02662,-0.013 0.07598,0.027 0.08929,0 0.007,-0.014 0,-0.4215 0,-0.4464"
         style="fill:none;stroke:#000000;stroke-width:1px;stroke-linecap:butt;stroke-linejoin:miter;stroke-opacity:1" />
      <path
         inkscape:connector-curvature="0"
         id="path3015"
         d="m 50,1041.4693 c 0.317367,-0.3754 0.235009,-0.3571 0.535714,-0.3571 0.02976,0 0.06267,0.013 0.08929,0 0.03765,-0.019 0.05952,-0.06 0.08929,-0.089 0.09076,-0.091 0.123712,-0.1425 0.267857,-0.1786 0.05775,-0.014 0.119048,0 0.178571,0 0.02976,0 0.06267,0.013 0.08929,0 0.03765,-0.019 0.05164,-0.07 0.08929,-0.089 0.05324,-0.027 0.125332,0.027 0.178571,0 0.03765,-0.019 0.05164,-0.07 0.08929,-0.089 0.02662,-0.013 0.05952,0 0.08929,0 0.05952,0 0.120825,0.014 0.178571,0 0.37355,0.1616 0.103279,-0.141 0.178572,-0.1786 0.05324,-0.027 0.119047,0 0.178571,0 0.08929,-0.03 0.187154,-0.041 0.267857,-0.089 0.07218,-0.043 0.111228,-0.1281 0.178572,-0.1786 0.05324,-0.04 0.119047,-0.06 0.178571,-0.089 0.119048,-0.06 0.232518,-0.1318 0.357143,-0.1785 0.114898,-0.043 0.236814,-0.065 0.357143,-0.089 0.02918,-0.01 0.06267,0.013 0.08928,0 0.03765,-0.019 0.05164,-0.071 0.08929,-0.089 0.02662,-0.013 0.06824,0.021 0.08929,0 0.02105,-0.021 -0.02662,-0.076 0,-0.089 0.05324,-0.027 0.120825,0.014 0.178571,0 0.601406,-0.1503 0.0014,0 0.178572,-0.1786 0.02105,-0.021 0.06267,0.013 0.08928,0 0.09598,-0.048 0.171878,-0.1305 0.267858,-0.1785 0.03229,-0.016 0.384326,0 0.446428,0 0.02932,0 0.254554,-0.01 0.267857,0 0.07004,0.047 0.103279,0.1409 0.178572,0.1785 0.05324,0.027 0.120825,-0.014 0.178571,0 0.06456,0.016 0.119048,0.06 0.178572,0.089 0.05952,0.03 0.125331,0.049 0.178571,0.089 0.06734,0.05 0.119048,0.1191 0.178571,0.1786 0.14881,0.1488 0.297619,0.2976 0.446429,0.4464 0.08929,0.089 0.178571,0.1786 0.267857,0.2679 0.05952,0.06 0.131877,0.1085 0.178572,0.1785 0.03692,0.055 0.04223,0.1316 0.08928,0.1786 0.02105,0.021 0.06824,-0.021 0.08929,0 0.04706,0.047 0.03391,0.1417 0.08929,0.1786 0.04953,0.033 0.122102,-0.019 0.178571,0 0.07986,0.027 0.103279,0.1409 0.178572,0.1786 0.02662,0.013 0.05952,0 0.08928,0 0.05952,0.03 0.123199,0.052 0.178572,0.089 0.205122,0.1368 -0.03829,0.051 0.178571,0.2679 0.04706,0.047 0.123199,0.052 0.178572,0.089 0.03502,0.023 0.05427,0.066 0.08928,0.089 0.01663,0.011 0.351422,0.1728 0.357143,0.1785 0.04706,0.047 0.03391,0.1417 0.08929,0.1786 0.04953,0.033 0.120825,-0.014 0.178571,0 0.06456,0.016 0.123199,0.052 0.178572,0.089 0.07004,0.047 0.10853,0.1319 0.178571,0.1786 0.05537,0.037 0.131514,0.042 0.178572,0.089 0.02104,0.021 -0.02476,0.073 0,0.089 0.07831,0.052 0.183677,0.047 0.267857,0.089 0.03765,0.019 0.05164,0.071 0.08928,0.089 0.02662,0.013 0.06267,-0.013 0.08929,0 0.09598,0.048 0.191979,0.1027 0.267857,0.1786 0.108749,0.1087 0.04182,0.1995 0.178572,0.2678 0.02662,0.013 0.06824,-0.021 0.08928,0 0.01825,0.018 -0.0177,0.2325 0,0.2679 0.01882,0.038 0.07046,0.052 0.08929,0.089 0.01359,0.027 0,0.2276 0,0.2678 0,0.2084 0,0.4167 0,0.625"
         style="fill:none;stroke:#000000;stroke-width:1px;stroke-linecap:butt;stroke-linejoin:miter;stroke-opacity:1" />
      <path
         inkscape:connector-curvature="0"
         id="path3017"
         d="m 54.910714,1041.38 c -0.09512,0.4757 -0.08928,0.2947 -0.08928,0.5358 0,0.03 -0.01331,0.063 0,0.089 0.01882,0.038 0.05952,0.06 0.08928,0.089 0.02976,0.03 0.05164,0.071 0.08929,0.089 0.02662,0.013 0.06824,-0.021 0.08929,0 0.02105,0.021 -0.01331,0.063 0,0.089 0.01882,0.038 0.06594,0.054 0.08929,0.089 0.03692,0.055 0.04936,0.1253 0.08928,0.1786 0.05051,0.067 0.119048,0.119 0.178572,0.1785 0.02976,0.03 0.05164,0.071 0.08928,0.089 0.02662,0.013 0.06824,-0.021 0.08929,0 0.02105,0.021 0,0.059 0,0.089 0,0.119 0,0.2381 0,0.3571 0,0.06 0.03302,0.1291 0,0.1786 -0.03692,0.055 -0.131514,0.042 -0.178571,0.089 -0.02981,0.03 0.02981,0.1488 0,0.1786 -0.02105,0.021 -0.06452,-0.016 -0.08929,0 -0.07004,0.047 -0.10853,0.1318 -0.178571,0.1785 -0.02476,0.016 -0.06452,-0.017 -0.08929,0 -0.07004,0.047 -0.10853,0.1319 -0.178572,0.1786 -0.04953,0.033 -0.122102,-0.019 -0.178571,0 -0.162163,0.054 -0.165701,0.076 -0.267857,0.1786 -0.02976,0.03 -0.05164,0.07 -0.08929,0.089 -0.02662,0.013 -0.05952,0 -0.08929,0 -0.148809,0 -0.297619,0 -0.446428,0 -0.02976,0 -0.06105,-0.01 -0.08929,0 -0.06313,0.021 -0.115437,0.068 -0.178571,0.089 -0.08036,0.027 -0.1875,-0.027 -0.267857,0 -0.03993,0.013 -0.05164,0.07 -0.08929,0.089 -0.197395,0.099 -0.204953,0.089 -0.357143,0.089 -0.02976,0 -0.06105,-0.01 -0.08929,0 -0.06313,0.021 -0.114009,0.073 -0.178571,0.089 -0.05775,0.014 -0.123305,-0.022 -0.178572,0 -0.09963,0.04 -0.175841,0.1234 -0.267857,0.1786 -0.114131,0.068 -0.238095,0.119 -0.357143,0.1786 -0.05952,0.03 -0.115436,0.068 -0.178571,0.089 -0.02824,0.01 -0.06267,-0.013 -0.08929,0 -0.221128,-0.05 -0.224043,0.2013 -0.357143,0.2679 -0.02662,0.013 -0.06266,-0.013 -0.08928,0 -0.03765,0.019 -0.05952,0.119 -0.08929,0.089 -0.02976,-0.03 0.05952,-0.06 0.08929,-0.089"
         style="fill:none;stroke:#000000;stroke-width:1px;stroke-linecap:butt;stroke-linejoin:miter;stroke-opacity:1" />
      <path
         inkscape:connector-curvature="0"
         id="path3019"
         d="m 53.125,1050.13 c 0.182505,-0.254 0.476847,-0.2881 0.714286,-0.4464 0.03502,-0.023 0.04845,-0.079 0.08929,-0.089 0.08662,-0.022 0.183153,0.028 0.267857,0 0.101801,-0.034 0.171878,-0.1306 0.267857,-0.1785 0.08418,-0.042 0.176552,-0.066 0.267857,-0.089 0.05775,-0.014 0.125332,0.027 0.178571,0 0.03765,-0.019 0.05164,-0.07 0.08929,-0.089 0.02662,-0.013 0.05952,0 0.08929,0 0.05952,-0.06 0.10853,-0.1319 0.178571,-0.1786 0.02476,-0.017 0.05952,0 0.08929,0 0.01532,0 0.502973,0.011 0.535714,0 0.153505,-0.051 0.02507,-0.1274 0.178572,-0.1786 0.05647,-0.019 0.119047,0 0.178571,0 0.08929,0 0.178572,0 0.267857,0 0.297619,0 0.595238,0 0.892857,0 0.05952,0 0.119048,0 0.178572,0 0.08929,0 0.184957,0.033 0.267857,0 0.07816,-0.031 0.10853,-0.1318 0.178571,-0.1785 0.03692,-0.025 0.292636,0.022 0.357143,0 0.06314,-0.021 0.114009,-0.073 0.178572,-0.089 0.05775,-0.014 0.119047,0 0.178571,0 0.07477,0 0.37853,0.017 0.446429,0 0.06456,-0.016 0.114009,-0.073 0.178571,-0.089 0.05775,-0.014 0.119048,0 0.178572,0 0.178571,0 0.357142,0 0.535714,0 0.08929,0 0.178571,0 0.267857,0 0.02976,0 0.05952,0 0.08929,0 0.02976,0 0.06267,-0.013 0.08928,0 0.07529,0.038 0.10328,0.1409 0.178572,0.1786 0.05324,0.027 0.136482,-0.042 0.178571,0 0.04706,0.047 0.04223,0.1315 0.08929,0.1785 0.02105,0.021 0.06267,-0.013 0.08929,0 0.03765,0.019 0.05952,0.06 0.08928,0.089 0.02976,0.03 0.07046,0.052 0.08929,0.089 0.01331,0.027 -0.01331,0.063 0,0.089 0.01882,0.038 0.07046,0.052 0.08929,0.089 0.01331,0.027 -0.02105,0.068 0,0.089 0.04209,0.042 0.136482,-0.042 0.178571,0 0.02105,0.021 -0.01331,0.063 0,0.089 0.01882,0.038 0.07046,0.052 0.08929,0.089 0.01331,0.027 -0.02105,0.068 0,0.089 0.119048,0.1191 0.08929,-0.1488 0.08929,0.089"
         style="fill:none;stroke:#000000;stroke-width:1px;stroke-linecap:butt;stroke-linejoin:miter;stroke-opacity:1" />
      <path
         inkscape:connector-curvature="0"
         id="path3021"
         d="m 58.928572,1049.6836 c 0.05952,0.1191 0.129139,0.2336 0.178571,0.3572 0.01482,0.037 0,0.3806 0,0.4464 0,0.2976 0,0.5952 0,0.8928 0,0.076 -0.016,0.3092 0,0.3572 0.01331,0.04 0.05952,0.06 0.08929,0.089"
         style="fill:none;stroke:#000000;stroke-width:1px;stroke-linecap:butt;stroke-linejoin:miter;stroke-opacity:1" />
    </g>
  </g>
</svg>
